<?xml version="1.0" encoding="UTF-8"?>
<!DOCTYPE svg PUBLIC "-//W3C//DTD SVG 1.1//EN" "http://www.w3.org/Graphics/SVG/1.1/DTD/svg11.dtd">
<!-- Creator: CorelDRAW X5 -->
<svg xmlns="http://www.w3.org/2000/svg" xml:space="preserve" width="8.4666mm" height="8.4666mm" style="shape-rendering:geometricPrecision; text-rendering:geometricPrecision; image-rendering:optimizeQuality; fill-rule:evenodd; clip-rule:evenodd"
viewBox="0 0 847 847"
 xmlns:xlink="http://www.w3.org/1999/xlink">
 <defs>
  <style type="text/css">
   <![CDATA[
    .fil0 {fill:#010201}
    .fil1 {fill:white}
   ]]>
  </style>
 </defs>
 <g id="Capa_x0020_1">
  <metadata id="CorelCorpID_0Corel-Layer"/>
  <g id="_256741800">
   <path class="fil0" d="M847 423c0,-234 -190,-423 -423,-423 -234,0 -423,190 -423,423 0,211 155,386 357,418l0 -296 -107 0 0 -122 107 0 0 -93c0,-106 63,-165 160,-165 46,0 95,8 95,8l0 104 -53 0c-53,0 -69,33 -69,66l0 79 117 0 -19 122 -99 0 0 296c202,-32 357,-207 357,-418z"/>
   <path class="fil1" d="M588 546l19 -122 -117 0 0 -79c0,-33 16,-66 69,-66l53 0 0 -104c0,0 -48,-8 -95,-8 -97,0 -160,59 -160,165l0 93 -107 0 0 122 107 0 0 296c22,3 44,5 66,5 23,0 45,-2 66,-5l0 -296 99 0z"/>
  </g>
 </g>
</svg>
