<?xml version="1.0" encoding="UTF-8"?>
<!DOCTYPE svg PUBLIC "-//W3C//DTD SVG 1.1//EN" "http://www.w3.org/Graphics/SVG/1.1/DTD/svg11.dtd">
<!-- Creator: CorelDRAW X5 -->
<svg xmlns="http://www.w3.org/2000/svg" xml:space="preserve" width="8.4666mm" height="8.4666mm" style="shape-rendering:geometricPrecision; text-rendering:geometricPrecision; image-rendering:optimizeQuality; fill-rule:evenodd; clip-rule:evenodd"
viewBox="0 0 847 847"
 xmlns:xlink="http://www.w3.org/1999/xlink">
 <defs>
  <style type="text/css">
   <![CDATA[
    .fil0 {fill:#99CC33}
    .fil1 {fill:white}
   ]]>
  </style>
 </defs>
 <g id="Capa_x0020_1">
  <metadata id="CorelCorpID_0Corel-Layer"/>
  <g id="_256740840">
   <path class="fil0" d="M423 0c234,0 423,190 423,423 0,234 -190,423 -423,423 -234,0 -423,-190 -423,-423 0,-234 190,-423 423,-423z"/>
   <path class="fil1" d="M423 157c-72,0 -81,0 -110,2 -28,1 -48,6 -65,12 -18,7 -32,16 -47,31 -15,15 -24,30 -31,47 -7,17 -11,36 -12,65 -1,28 -2,38 -2,110 0,72 0,81 2,110 1,28 6,48 12,65 7,18 16,32 31,47 15,15 30,24 47,31 17,7 36,11 65,12 28,1 38,2 110,2 72,0 81,0 110,-2 28,-1 48,-6 65,-12 18,-7 32,-16 47,-31 15,-15 24,-30 31,-47 7,-17 11,-36 12,-65 1,-28 2,-38 2,-110 0,-72 0,-81 -2,-110 -1,-28 -6,-48 -12,-65 -7,-18 -16,-32 -31,-47 -15,-15 -30,-24 -47,-31 -17,-7 -36,-11 -65,-12 -28,-1 -38,-2 -110,-2l0 0zm0 48c71,0 80,0 108,2 26,1 40,6 49,9 12,5 21,11 31,20 9,9 15,18 20,31 4,9 8,24 9,50 1,28 2,37 2,108 0,71 0,80 -2,108 -1,26 -6,40 -9,49 -5,12 -11,21 -20,31 -9,9 -18,15 -31,20 -9,4 -24,8 -49,9 -28,1 -37,2 -108,2 -71,0 -80,0 -108,-2 -26,-1 -40,-6 -49,-9 -12,-5 -21,-11 -31,-20 -9,-9 -15,-18 -20,-31 -4,-9 -8,-24 -9,-49 -1,-28 -2,-37 -2,-108 0,-71 0,-80 2,-108 1,-26 6,-40 9,-50 5,-12 11,-21 20,-31 9,-9 18,-15 31,-20 9,-4 24,-8 49,-9 28,-1 37,-2 108,-2z"/>
   <path class="fil1" d="M423 512c-49,0 -89,-40 -89,-89 0,-49 40,-89 89,-89 49,0 89,40 89,89 0,49 -40,89 -89,89zm0 -226c-76,0 -137,61 -137,137 0,76 61,137 137,137 76,0 137,-61 137,-137 0,-76 -61,-137 -137,-137z"/>
   <path class="fil1" d="M598 281c0,18 -14,32 -32,32 -18,0 -32,-14 -32,-32 0,-18 14,-32 32,-32 18,0 32,14 32,32z"/>
  </g>
 </g>
</svg>
