<?xml version="1.0" encoding="UTF-8"?>
<!DOCTYPE svg PUBLIC "-//W3C//DTD SVG 1.1//EN" "http://www.w3.org/Graphics/SVG/1.1/DTD/svg11.dtd">
<!-- Creator: CorelDRAW X5 -->
<svg xmlns="http://www.w3.org/2000/svg" xml:space="preserve" width="8.4666mm" height="8.4666mm" style="shape-rendering:geometricPrecision; text-rendering:geometricPrecision; image-rendering:optimizeQuality; fill-rule:evenodd; clip-rule:evenodd"
viewBox="0 0 847 847"
 xmlns:xlink="http://www.w3.org/1999/xlink">
 <defs>
  <style type="text/css">
   <![CDATA[
    .fil0 {fill:#010201}
    .fil1 {fill:white}
   ]]>
  </style>
 </defs>
 <g id="Capa_x0020_1">
  <metadata id="CorelCorpID_0Corel-Layer"/>
  <g id="_256741200">
   <path class="fil0" d="M847 423c0,234 -190,423 -423,423 -234,0 -423,-190 -423,-423 0,-234 190,-423 423,-423 234,0 423,190 423,423z"/>
   <path class="fil1" d="M559 471c-7,-3 -40,-20 -46,-22 -6,-2 -11,-3 -15,3 -4,7 -17,22 -21,26 -4,4 -8,5 -15,2 -7,-3 -28,-10 -54,-33 -20,-18 -33,-40 -37,-46 -4,-7 0,-10 3,-14 3,-3 7,-8 10,-12 3,-4 4,-7 7,-11 2,-4 1,-8 -1,-12 -2,-3 -15,-36 -21,-50 -5,-13 -11,-11 -15,-12 -4,0 -8,0 -13,0 -4,0 -12,2 -18,8 -6,7 -23,23 -23,56 0,33 24,65 27,69 3,4 47,72 115,101 16,7 29,11 38,14 16,5 31,4 42,3 13,-2 40,-16 45,-32 6,-16 6,-29 4,-32 -2,-3 -6,-4 -13,-8zm-122 167l0 0c-40,0 -79,-11 -114,-31l-8 -5 -84 22 23 -82 -5 -8c-22,-36 -34,-77 -34,-119 0,-123 100,-223 223,-223 60,0 116,23 158,65 42,42 65,98 65,158 0,123 -100,223 -223,223zm190 -413c-51,-51 -118,-79 -190,-79 -148,0 -269,120 -269,268 0,47 12,93 36,134l-38 139 142 -37c39,21 83,33 128,33l0 0c0,0 0,0 0,0 148,0 268,-120 269,-268 0,-72 -28,-139 -79,-190z"/>
  </g>
 </g>
</svg>
