<?xml version="1.0" encoding="UTF-8"?>
<!DOCTYPE svg PUBLIC "-//W3C//DTD SVG 1.1//EN" "http://www.w3.org/Graphics/SVG/1.1/DTD/svg11.dtd">
<!-- Creator: CorelDRAW X5 -->
<svg xmlns="http://www.w3.org/2000/svg" xml:space="preserve" width="75mm" height="16.353mm" style="shape-rendering:geometricPrecision; text-rendering:geometricPrecision; image-rendering:optimizeQuality; fill-rule:evenodd; clip-rule:evenodd"
viewBox="0 0 7500 1635"
 xmlns:xlink="http://www.w3.org/1999/xlink">
 <defs>
  <style type="text/css">
   <![CDATA[
    .fil0 {fill:#010201}
    .fil1 {fill:#373435}
   ]]>
  </style>
 </defs>
 <g id="Capa_x0020_1">
  <metadata id="CorelCorpID_0Corel-Layer"/>
  <g id="_590931656">
   <path class="fil0" d="M781 547l0 205 -236 0 0 -205 -545 0 0 -236c453,0 872,0 1325,0l0 236 -543 0zm0 600l0 489 -236 0 0 -489 236 0zm926 -57l0 307 294 0 557 0 238 0 0 10c0,63 -22,117 -67,161 -44,44 -98,67 -161,67l-869 0c-63,0 -118,-22 -162,-67 -44,-44 -66,-99 -66,-161l0 -328c0,-126 109,-228 236,-228l883 0 0 238 -883 0zm-236 -339l0 -213c0,-62 22,-116 66,-161 44,-45 99,-67 162,-67l869 0c63,0 117,22 161,67 44,44 67,98 67,161l0 8 -238 0 -425 0 -425 0 0 205 -236 0zm2487 339l326 545 -263 0 -333 -545 -510 0 0 545 -236 0 0 -555c0,-123 112,-228 236,-228l851 0 238 0 0 12c0,63 -22,117 -67,161 -45,43 -99,65 -161,65l-81 0zm-1016 -339l0 -213c0,-62 22,-116 66,-161 44,-45 99,-67 162,-67l869 0c63,0 117,22 161,67 44,44 67,98 67,161l0 213 -238 0 0 -205 -851 0 0 205 -236 0zm1689 339l0 545 -236 0 0 -555c0,-127 108,-228 236,-228l851 0 238 0 0 12c0,63 -22,117 -67,161 -45,43 -99,65 -161,65l-861 0zm-236 -339l0 -213c0,-62 22,-116 66,-161 44,-45 99,-67 162,-67l869 0c63,0 117,22 161,67 44,44 67,98 67,161l0 213 -238 0 0 -205 -851 0 0 205 -236 0zm2796 656c0,63 -22,117 -67,161 -44,44 -98,67 -161,67l-869 0c-63,0 -118,-22 -162,-67 -44,-44 -66,-99 -66,-161l0 -328c0,-126 108,-228 236,-228l0 545 851 0 0 -545 238 0 0 14 0 542zm-1325 -656l0 -213c0,-62 22,-116 66,-161 44,-45 99,-67 162,-67l869 0c63,0 117,22 161,67 44,44 67,98 67,161l0 213 -238 0 0 -205 -851 0 0 205 -236 0z"/>
   <path class="fil1" d="M545 1281l236 0 0 -191 0 -238c-127,0 -236,102 -236,228l0 201z"/>
   <path class="fil0" d="M7346 0c26,0 51,7 76,20 25,13 44,32 58,57 14,25 21,51 21,78 0,27 -7,52 -20,77 -14,25 -33,44 -57,57 -25,14 -50,20 -77,20 -27,0 -52,-7 -77,-20 -25,-14 -44,-33 -57,-57 -14,-25 -20,-50 -20,-77 0,-27 7,-53 21,-78 14,-25 33,-44 58,-57 25,-13 50,-20 76,-20zm0 26c-22,0 -43,6 -63,17 -21,11 -37,27 -48,48 -12,21 -17,42 -17,65 0,22 6,44 17,64 11,20 27,36 48,48 20,11 42,17 64,17 22,0 44,-6 64,-17 20,-11 36,-27 48,-48 11,-20 17,-42 17,-64 0,-22 -6,-44 -17,-65 -12,-21 -28,-37 -48,-48 -21,-11 -42,-17 -63,-17zm-68 214l0 -166 57 0c20,0 34,1 42,5 9,3 16,8 21,16 5,8 8,16 8,24 0,12 -4,23 -13,32 -9,9 -20,14 -35,15 6,2 11,5 14,9 7,7 15,18 25,33l20 33 -33 0 -15 -26c-12,-21 -21,-34 -28,-39 -5,-4 -12,-6 -22,-6l-16 0 0 71 -27 0zm27 -94l33 0c16,0 26,-2 32,-7 6,-5 9,-11 9,-18 0,-5 -1,-9 -4,-13 -3,-4 -7,-7 -11,-9 -5,-2 -14,-3 -27,-3l-30 0 0 50z"/>
  </g>
 </g>
</svg>
